HIERARCHY
ROOT Hips
{
	OFFSET 0.000000 0.000000 0.000000
	CHANNELS 6 Xposition Yposition Zposition Zrotation Yrotation Xrotation 
	JOINT LHipJoint
	{
		OFFSET 0.000000 0.000000 0.000000
		CHANNELS 3 Zrotation Yrotation Xrotation
		JOINT LeftUpLeg
		{
			OFFSET 1.363060 -1.794630 0.839290
			CHANNELS 3 Zrotation Yrotation Xrotation
			JOINT LeftLeg
			{
				OFFSET 2.448110 -6.726130 0.000000
				CHANNELS 3 Zrotation Yrotation Xrotation
				JOINT LeftFoot
				{
					OFFSET 2.562200 -7.039590 0.000000
					CHANNELS 3 Zrotation Yrotation Xrotation
					JOINT LeftToeBase
					{
						OFFSET 0.157640 -0.433110 2.322550
						CHANNELS 3 Zrotation Yrotation Xrotation
						End Site
						{
							OFFSET 0.000000 0.000000 0.000000
						}
					}
				}
			}
		}
	}
	JOINT RHipJoint
	{
		OFFSET 0.000000 0.000000 0.000000
		CHANNELS 3 Zrotation Yrotation Xrotation
		JOINT RightUpLeg
		{
			OFFSET -1.305520 -1.794630 0.839290
			CHANNELS 3 Zrotation Yrotation Xrotation
			JOINT RightLeg
			{
				OFFSET -2.542530 -6.985550 0.000000
				CHANNELS 3 Zrotation Yrotation Xrotation
				JOINT RightFoot
				{
					OFFSET -2.568260 -7.056230 0.000000
					CHANNELS 3 Zrotation Yrotation Xrotation
					JOINT RightToeBase
					{
						OFFSET -0.164730 -0.452590 2.363150
						CHANNELS 3 Zrotation Yrotation Xrotation
						End Site
						{
							OFFSET 0.000000 0.000000 0.000000
						}
					}
				}
			}
		}
	}
	JOINT LowerBack
	{
		OFFSET 0.000000 0.000000 0.000000
		CHANNELS 3 Zrotation Yrotation Xrotation
		JOINT Spine
		{
			OFFSET 0.028270 2.035590 -0.193380
			CHANNELS 3 Zrotation Yrotation Xrotation
			JOINT Spine1
			{
				OFFSET 0.056720 2.048850 -0.042750
				CHANNELS 3 Zrotation Yrotation Xrotation
				JOINT Neck
				{
					OFFSET 0.000000 0.000000 0.000000
					CHANNELS 3 Zrotation Yrotation Xrotation
					JOINT Neck1
					{
						OFFSET -0.054170 1.746240 0.172020
						CHANNELS 3 Zrotation Yrotation Xrotation
						JOINT Head
						{
							OFFSET 0.104070 1.761360 -0.123970
							CHANNELS 3 Zrotation Yrotation Xrotation
							End Site
							{
								OFFSET 0.000000 0.000000 0.000000
							}
						}
					}
				}
				JOINT LeftShoulder
				{
					OFFSET 0.000000 0.000000 0.000000
					CHANNELS 3 Zrotation Yrotation Xrotation
					JOINT LeftArm
					{
						OFFSET 3.362410 1.200890 -0.311210
						CHANNELS 3 Zrotation Yrotation Xrotation
						JOINT LeftForeArm
						{
							OFFSET 4.983000 -0.000000 -0.000000
							CHANNELS 3 Zrotation Yrotation Xrotation
							JOINT LeftHand
							{
								OFFSET 3.483560 -0.000000 -0.000000
								CHANNELS 3 Zrotation Yrotation Xrotation
								JOINT LeftFingerBase
								{
									OFFSET 0.000000 0.000000 0.000000
									CHANNELS 3 Zrotation Yrotation Xrotation
									JOINT LeftHandIndex1
									{
										OFFSET 0.715260 -0.000000 -0.000000
										CHANNELS 3 Zrotation Yrotation Xrotation
										End Site
										{
											OFFSET 0.000000 0.000000 0.000000
										}
									}
								}
								JOINT LThumb
								{
									OFFSET 0.000000 0.000000 0.000000
									CHANNELS 3 Zrotation Yrotation Xrotation
									End Site
									{
										OFFSET 0.000000 0.000000 0.000000
									}
								}
							}
						}
					}
				}
				JOINT RightShoulder
				{
					OFFSET 0.000000 0.000000 0.000000
					CHANNELS 3 Zrotation Yrotation Xrotation
					JOINT RightArm
					{
						OFFSET -3.136600 1.374050 -0.404650
						CHANNELS 3 Zrotation Yrotation Xrotation
						JOINT RightForeArm
						{
							OFFSET -5.241900 -0.000000 -0.000000
							CHANNELS 3 Zrotation Yrotation Xrotation
							JOINT RightHand
							{
								OFFSET -3.444170 -0.000000 -0.000000
								CHANNELS 3 Zrotation Yrotation Xrotation
								JOINT RightFingerBase
								{
									OFFSET 0.000000 0.000000 0.000000
									CHANNELS 3 Zrotation Yrotation Xrotation
									JOINT RightHandIndex1
									{
										OFFSET -0.622530 -0.000000 -0.000000
										CHANNELS 3 Zrotation Yrotation Xrotation
										End Site
										{
											OFFSET 0.000000 0.000000 0.000000
										}
									}
								}
								JOINT RThumb
								{
									OFFSET 0.000000 0.000000 0.000000
									CHANNELS 3 Zrotation Yrotation Xrotation
									End Site
									{
										OFFSET 0.000000 0.000000 0.000000
									}
								}
							}
						}
					}
				}
			}
		}
	}
}
MOTION
Frames: 10
Frame Time: 0.008333
1.111893 17.963829 8.212555 3.185816 3.865503 1.669883 -3.112936 6.160711 6.886195 -20.510574 -6.445193 -0.076494 -1.195906 3.618493 17.578491 1.964519 -5.441708 -1.033303 0.216449 -2.978462 -8.219938 3.595168 -3.618323 1.494785 6.562832 16.954032 -27.414339 1.445486 -3.009183 9.516259 6.143959 -18.826844 4.160341 -0.483486 4.456282 -12.364580 -5.477191 -2.357173 2.401974 3.373953 -3.095620 2.958102 5.146258 -1.795431 -5.168625 -5.175428 -3.797662 -14.967138 3.857868 -4.321686 15.680442 -0.012350 -1.778770 8.522319 -7.093092 2.176788 -1.163395 -72.978302 1.135898 32.489960 19.842424 -31.368448 -6.108828 -0.438442 -1.277222 -5.591356 25.566730 30.405623 14.417882 -7.125000 0.000000 0.000000 -7.141111 64.268287 -3.341369 11.369167 -2.003808 -2.907717 72.846320 -5.559798 15.133887 -12.200454 25.327378 -3.603188 0.878283 -0.157071 2.837856 -13.050517 16.104425 -3.950786 7.125000 0.000000 0.000000 9.223672 -13.509452 6.905741
1.105311 17.945045 8.335421 3.301117 3.961678 1.787600 -3.110121 6.205393 6.937605 -20.589485 -6.304575 0.251577 -1.226366 3.527028 17.349758 1.907408 -5.267889 -0.995772 0.282382 -3.417466 -9.443381 3.632680 -3.668730 1.466296 5.997657 17.622086 -27.041063 1.568107 -2.547195 8.334028 6.322810 -19.087558 3.068197 -0.443307 4.269055 -11.835536 -5.625429 -2.423248 2.287489 3.368997 -3.184491 2.971476 5.227341 -1.842377 -5.085143 -5.157729 -3.824634 -15.302023 3.902756 -4.331284 15.823801 -0.002272 -1.771590 8.626048 -7.097663 2.186861 -1.163869 -72.920156 0.928876 32.505844 19.830741 -31.353185 -6.102551 -0.441347 -1.274350 -5.726487 25.699640 30.240025 14.435306 -7.125000 0.000000 0.000000 -6.858851 64.132141 -3.186383 11.365861 -1.989252 -2.899398 72.863415 -5.503279 15.066627 -12.198099 25.321303 -3.602006 0.877102 -0.160871 2.864735 -13.022228 16.152606 -3.954384 7.125000 0.000000 0.000000 9.243579 -13.459820 6.930879
1.097398 17.925262 8.453365 3.439771 4.083472 1.886464 -3.098942 6.256319 6.997344 -20.681357 -6.276086 0.738574 -1.259540 3.422386 17.088586 1.879832 -5.156423 -1.180708 0.318103 -3.622644 -10.017701 3.659176 -3.709710 1.422404 5.583899 17.956234 -26.860443 1.621577 -2.273807 7.511473 6.572307 -19.764947 3.323852 -0.642045 5.093425 -14.181961 -5.793259 -2.490831 2.229166 3.374450 -3.281256 2.872958 5.324793 -1.887303 -5.122508 -5.218824 -3.826788 -15.090445 3.902200 -4.342475 15.775644 0.006946 -1.783316 8.575347 -7.094597 2.179938 -1.160765 -72.927421 1.005483 32.423322 19.879677 -31.405947 -6.129203 -0.430761 -1.264972 -5.654099 25.309461 30.029650 14.107510 -7.125000 0.000000 0.000000 -7.213286 63.801702 -3.295038 11.373922 -1.999845 -2.907250 72.807508 -5.625726 15.013137 -12.122125 25.222019 -3.565403 0.882953 -0.171462 2.901113 -13.049910 16.320437 -4.006373 7.125000 0.000000 0.000000 9.222499 -13.278366 6.950264
1.088773 17.910539 8.566174 3.502610 4.167743 1.982982 -3.076657 6.304628 7.057118 -20.700799 -6.249945 1.254425 -1.294590 3.312235 16.810435 1.841714 -4.987215 -1.419890 0.364736 -3.873662 -10.722208 3.656600 -3.720017 1.383151 5.440908 18.020688 -26.912125 1.654605 -2.134849 7.076634 6.646233 -19.994761 3.496252 -0.747762 5.522955 -15.406426 -5.867878 -2.532152 2.215167 3.394521 -3.339230 2.759412 5.382060 -1.914778 -5.206333 -5.251781 -3.834987 -14.822561 3.830850 -4.366374 15.698901 -0.012286 -1.807592 8.504537 -7.089715 2.166956 -1.156299 -72.932127 1.104335 32.392932 19.944006 -31.476816 -6.164872 -0.420277 -1.252932 -5.572368 24.917277 29.736162 13.748658 -7.125000 0.000000 0.000000 -7.513873 63.384757 -3.359566 11.379141 -2.017921 -2.920101 72.777954 -5.791028 14.923680 -12.078312 25.169724 -3.545424 0.886820 -0.180324 2.939043 -13.051863 16.467854 -4.044882 7.125000 0.000000 0.000000 9.219815 -13.121415 6.979034
1.079756 17.899855 8.675100 3.512261 4.219552 2.075549 -3.044230 6.348696 7.115256 -20.673694 -6.221307 1.793867 -1.330197 3.198184 16.522981 1.792765 -4.767584 -1.692894 0.424148 -4.176694 -11.574757 3.626308 -3.700983 1.349707 5.539647 17.811465 -27.179068 1.668982 -2.121261 6.996777 6.554121 -19.807985 3.635186 -0.775246 5.621674 -15.690621 -5.873336 -2.551101 2.237449 3.422636 -3.364457 2.642339 5.407442 -1.928074 -5.321065 -5.258229 -3.852289 -14.543070 3.703235 -4.403535 15.605123 -0.055340 -1.842748 8.425201 -7.083689 2.149690 -1.150946 -72.934519 1.207803 32.404967 20.020971 -31.562697 -6.207808 -0.410015 -1.240220 -5.489030 24.537247 29.423295 13.391906 -7.125000 0.000000 0.000000 -7.784744 62.951703 -3.404207 11.381176 -2.041105 -2.936656 72.773338 -5.985865 14.806500 -12.069343 25.167837 -3.543351 0.888282 -0.187374 2.971139 -13.020448 16.594368 -4.067333 7.125000 0.000000 0.000000 9.240845 -12.990096 7.021175
1.073139 17.887781 8.788132 3.634365 4.250331 2.142777 -2.998884 6.366577 7.152585 -20.807364 -6.137387 2.332399 -1.353545 3.091840 16.293310 1.716499 -4.509686 -1.832497 0.531448 -4.659915 -12.943081 3.547631 -3.629673 1.341303 5.883881 16.946406 -27.755044 1.659817 -2.296528 7.379044 6.186649 -19.002757 4.209402 -0.778567 5.633468 -15.724647 -5.969939 -2.559674 2.258788 3.401445 -3.378076 2.635272 5.446259 -1.943061 -5.345815 -5.221793 -3.921392 -14.695810 3.598144 -4.476195 15.591486 -0.104482 -1.885248 8.445468 -7.081985 2.140990 -1.148483 -72.934216 1.140903 32.412808 20.098074 -31.650600 -6.249119 -0.401470 -1.246420 -5.481408 24.329687 29.720315 13.379841 -7.125000 0.000000 0.000000 -8.236243 63.204192 -3.652697 11.372567 -2.051398 -2.948278 72.810227 -6.110487 14.711549 -12.166213 25.314295 -3.594655 0.880034 -0.189515 2.914395 -12.835745 16.668883 -4.027273 7.125000 0.000000 0.000000 9.369699 -12.927939 7.134236
1.067788 17.869662 8.904431 3.808231 4.291392 2.153035 -2.947716 6.381120 7.187076 -20.997856 -6.027871 2.890979 -1.371016 2.990155 16.091129 1.664866 -4.371722 -1.875677 0.594062 -4.933389 -13.718893 3.455683 -3.556187 1.339459 6.231062 15.998178 -28.356303 1.630775 -2.551335 7.961484 5.787296 -18.142259 4.921336 -0.759404 5.564496 -15.526158 -6.103184 -2.580597 2.308622 3.345452 -3.411796 2.671110 5.480878 -1.969016 -5.347684 -5.174882 -3.963266 -14.890498 3.553864 -4.517726 15.566748 -0.132967 -1.906399 8.469875 -7.080234 2.134265 -1.147026 -72.930514 1.083212 32.356254 20.176176 -31.740198 -6.292026 -0.396941 -1.247427 -5.413606 24.195714 29.846437 13.345941 -7.125000 0.000000 0.000000 -8.485462 63.297910 -3.781459 11.365518 -2.059593 -2.958029 72.829956 -6.207024 14.712692 -12.239703 25.425404 -3.631349 0.877620 -0.193502 2.795027 -12.742844 16.802837 -4.030641 7.125000 0.000000 0.000000 9.434469 -12.795367 7.211460
1.062562 17.847711 9.022853 3.992688 4.330828 2.125539 -2.893127 6.394895 7.220763 -21.195912 -5.899300 3.445244 -1.383107 2.897345 15.919304 1.627023 -4.303471 -1.841534 0.633043 -5.089080 -14.163151 3.357725 -3.484513 1.339527 6.593233 15.045838 -28.965744 1.584146 -2.865426 8.700956 5.385342 -17.289825 5.709917 -0.729023 5.455228 -15.211650 -6.247835 -2.610333 2.376876 3.278539 -3.458963 2.729974 5.515233 -2.001794 -5.338465 -5.125009 -3.980907 -15.095279 3.550393 -4.531230 15.536094 -0.145967 -1.910149 8.494512 -7.078626 2.128888 -1.146118 -72.930699 1.041448 32.243200 20.249890 -31.824977 -6.333506 -0.396456 -1.242814 -5.283671 24.131692 29.784223 13.281517 -7.125000 0.000000 0.000000 -8.525895 63.213787 -3.783941 11.360041 -2.066493 -2.966518 72.829593 -6.285511 14.804610 -12.292652 25.505686 -3.655180 0.881127 -0.196418 2.626051 -12.760763 16.945267 -4.071025 7.125000 0.000000 0.000000 9.422027 -12.645047 7.231807
1.052193 17.827315 9.140796 4.006073 4.309798 2.101027 -2.841948 6.419117 7.262239 -21.177326 -5.757207 3.873494 -1.384967 2.845385 15.832225 1.569895 -4.159565 -1.717148 0.716822 -5.406437 -15.072385 3.280228 -3.436051 1.321962 7.047799 14.459997 -29.512991 1.507228 -3.222000 9.602987 5.116600 -16.757591 6.387463 -0.725973 5.444111 -15.179657 -6.299128 -2.643886 2.440339 3.299668 -3.505969 2.748179 5.567684 -2.030822 -5.359387 -5.103944 -3.956043 -15.172139 3.547346 -4.493854 15.516252 -0.147323 -1.891915 8.501087 -7.078259 2.123688 -1.144315 -72.974656 1.068947 32.035382 20.287700 -31.867464 -6.357259 -0.405572 -1.223012 -4.998928 24.214195 29.197906 13.104266 -7.125000 0.000000 0.000000 -8.046334 62.622386 -3.459467 11.358303 -2.074176 -2.974953 72.768227 -6.369468 15.083845 -12.310994 25.535285 -3.657193 0.898919 -0.182948 2.402802 -13.128740 16.865079 -4.167615 7.125000 0.000000 0.000000 9.166284 -12.703746 7.018835
1.040454 17.807405 9.257944 3.999163 4.270934 2.108030 -2.793893 6.439341 7.295221 -21.143841 -5.659346 4.219952 -1.368074 2.844418 15.871908 1.547228 -4.083102 -1.787615 0.903009 -6.025527 -16.867660 3.211910 -3.400714 1.303174 7.440108 14.080513 -29.973037 1.424010 -3.555003 10.466868 4.930216 -16.391389 6.850679 -0.685316 5.289729 -14.737461 -6.338103 -2.647293 2.499845 3.331734 -3.514016 2.718225 5.620845 -2.036815 -5.422116 -5.081774 -3.950786 -15.213919 3.497779 -4.481014 15.561259 -0.165197 -1.888048 8.521237 -7.080046 2.119946 -1.142910 -73.013520 1.090215 31.957657 20.282018 -31.861547 -6.355705 -0.415576 -1.213638 -4.904642 24.447367 28.862152 13.112676 -7.125000 0.000000 0.000000 -7.549903 62.332936 -3.191622 11.357917 -2.081398 -2.978911 72.764982 -6.424259 15.090799 -12.285209 25.500815 -3.640446 0.907471 -0.194904 2.344995 -13.216193 17.114552 -4.259416 7.125000 0.000000 0.000000 9.106746 -12.431850 7.024254
